<svg width="32" height="32" fill="none" xmlns="http://www.w3.org/2000/svg"><rect width="32" height="32" rx="5" fill="url(#paint0_linear_685_12860)"/><path fill-rule="evenodd" clip-rule="evenodd" d="M5.35 11c0-1.526 1.352-2.65 2.872-2.65h15.556c1.52 0 2.872 1.124 2.872 2.65v10.001c0 1.525-1.352 2.65-2.872 2.65H8.222c-1.52 0-2.872-1.125-2.872-2.65V11zm1.3 2.148V21c0 .683.637 1.35 1.572 1.35h15.556c.934 0 1.572-.667 1.572-1.35v-7.852l-7.783 4.67a3.08 3.08 0 01-3.134 0l-7.783-4.67zm18.7-1.516l-8.452 5.071a1.78 1.78 0 01-1.796 0l-8.452-5.07V11c0-.683.637-1.35 1.572-1.35h15.556c.934 0 1.572.667 1.572 1.35v.632z" fill="#fff"/><defs><linearGradient id="paint0_linear_685_12860" x1="30.5" y1="0" x2="-2.5" y2="32" gradientUnits="userSpaceOnUse"><stop stop-color="#F9E861"/><stop offset=".526" stop-color="#85E3CA"/><stop offset="1" stop-color="#1163C9"/></linearGradient></defs></svg>