<svg width="32" height="32" fill="none" xmlns="http://www.w3.org/2000/svg"><rect width="32" height="32" rx="5" fill="url(#paint0_linear_685_12856)"/><path d="M16 10.286c-.63 0-1.245.21-1.768.602-.523.392-.93.95-1.172 1.603a3.98 3.98 0 00-.18 2.063c.122.693.425 1.33.87 1.829.445.5 1.012.84 1.63.977a2.86 2.86 0 001.838-.203 3.292 3.292 0 001.428-1.316 3.89 3.89 0 00.536-1.984c0-.947-.335-1.855-.932-2.525-.597-.67-1.406-1.046-2.25-1.046zM16 16c-.378 0-.747-.126-1.06-.361a2.11 2.11 0 01-.704-.962 2.387 2.387 0 01-.108-1.238c.073-.415.255-.797.522-1.097.267-.3.607-.504.978-.587.37-.082.754-.04 1.103.122.348.163.647.437.856.79.21.352.322.766.322 1.19a2.28 2.28 0 01-.56 1.516A1.81 1.81 0 0116 16zm0-10c-1.856.002-3.635.83-4.947 2.304C9.74 9.777 9.003 11.774 9 13.857c0 2.804 1.154 5.775 3.34 8.594a21.343 21.343 0 003.298 3.42.59.59 0 00.365.129.59.59 0 00.365-.13 21.34 21.34 0 003.291-3.419C21.843 19.632 23 16.661 23 13.857c-.002-2.083-.74-4.08-2.053-5.553C19.635 6.83 17.856 6.002 16 6zm0 18.393c-1.315-1.16-5.727-5.424-5.727-10.536 0-1.705.603-3.34 1.677-4.546C13.024 8.106 14.481 7.43 16 7.43c1.519 0 2.976.677 4.05 1.882 1.074 1.206 1.677 2.841 1.677 4.546 0 5.11-4.412 9.375-5.727 10.536z" fill="#fff"/><defs><linearGradient id="paint0_linear_685_12856" x1="30.5" y1="0" x2="-2.5" y2="32" gradientUnits="userSpaceOnUse"><stop stop-color="#F9E861"/><stop offset=".526" stop-color="#85E3CA"/><stop offset="1" stop-color="#1163C9"/></linearGradient></defs></svg>