<svg width="32" height="32" fill="none" xmlns="http://www.w3.org/2000/svg"><rect width="32" height="32" rx="5" fill="url(#paint0_linear_685_12864)"/><path d="M25.085 18.774l-4.475-2.006-.012-.006a1.52 1.52 0 00-1.513.187l-2.312 1.97c-1.465-.71-2.978-2.212-3.69-3.658l1.975-2.347a1.519 1.519 0 00.18-1.504v-.01l-2.012-4.483a1.52 1.52 0 00-1.579-.905A5.345 5.345 0 007 11.32C7 18.863 13.137 25 20.68 25a5.345 5.345 0 005.309-4.648 1.52 1.52 0 00-.904-1.578zM20.68 23.48A12.173 12.173 0 018.52 11.32a3.82 3.82 0 013.313-3.8v.011l1.995 4.465-1.964 2.35a.585.585 0 00-.054.074 1.52 1.52 0 00-.095 1.491c.86 1.76 2.634 3.521 4.414 4.38a1.519 1.519 0 001.566-.16l2.31-1.971 4.465 2h.01a3.82 3.82 0 01-3.8 3.32z" fill="#fff"/><defs><linearGradient id="paint0_linear_685_12864" x1="30.5" y1="0" x2="-2.5" y2="32" gradientUnits="userSpaceOnUse"><stop stop-color="#F9E861"/><stop offset=".526" stop-color="#85E3CA"/><stop offset="1" stop-color="#1163C9"/></linearGradient></defs></svg>