<svg aria-hidden="true" style="position:absolute;width:0;height:0" xmlns="http://www.w3.org/2000/svg" overflow="hidden"><defs><symbol id="icon-arrow-24" viewBox="0 0 32 32"><path d="M17.563 16l-6.6-6.6 1.885-1.885L21.333 16l-8.485 8.485-1.885-1.885 6.6-6.6z"/></symbol><symbol id="icon-btn_arrow" viewBox="0 0 32 32"><path d="M15.758 16L8.333 8.575l2.121-2.121L20 16l-9.546 9.546-2.121-2.121L15.758 16z"/></symbol><symbol id="icon-btn_big_arrow" viewBox="0 0 32 32"><path d="M18.149 16L9.074 6.925l2.592-2.592L23.333 16 11.666 27.667l-2.592-2.592L18.149 16z"/></symbol><symbol id="icon-burger" viewBox="0 0 32 32"><path stroke-linecap="round" stroke-width="1.454" d="M7.273 10.182h17.455M7.273 16h17.455M7.273 21.818h17.455"/></symbol><symbol id="icon-calendar" viewBox="0 0 32 32"><path d="M22.667 4H28a1.335 1.335 0 011.334 1.334v21.333A1.335 1.335 0 0128 28.001H4a1.33 1.33 0 01-1.333-1.334V5.334A1.333 1.333 0 014 4h5.333V1.333H12V4h8V1.333h2.667V4zM20 6.667h-8v2.667H9.333V6.667h-4V12h21.333V6.667h-4v2.667h-2.667V6.667zm6.667 8H5.334v10.667h21.333V14.667z"/></symbol><symbol id="icon-check" viewBox="0 0 32 32"><path d="M13.333 20.229L25.589 7.972l1.887 1.885L13.333 24l-8.485-8.485 1.885-1.885 6.6 6.6z"/></symbol><symbol id="icon-clock" viewBox="0 0 32 32"><path d="M16 2.666c7.36 0 13.333 5.973 13.333 13.333S23.36 29.332 16 29.332 2.667 23.359 2.667 15.999 8.64 2.666 16 2.666zm0 24c5.893 0 10.667-4.773 10.667-10.667S21.894 5.332 16 5.332 5.333 10.105 5.333 15.999c0 5.893 4.773 10.667 10.667 10.667zM20.715 9.4l1.885 1.885-6.6 6.6L14.115 16l6.6-6.6z"/></symbol><symbol id="icon-close" viewBox="0 0 32 32"><path stroke-linejoin="round" stroke-linecap="round" stroke-width="1.454" d="M24.727 7.273L7.272 24.728m.001-17.455l17.455 17.455"/></symbol><symbol id="icon-copy" viewBox="0 0 32 32"><path d="M9.333 8V4a1.335 1.335 0 011.334-1.334h16A1.335 1.335 0 0128.001 4v18.667a1.335 1.335 0 01-1.334 1.334h-4v4c0 .736-.6 1.333-1.343 1.333H5.343a1.346 1.346 0 01-.949-.387A1.321 1.321 0 014 28.002l.004-18.667c0-.736.6-1.333 1.343-1.333h3.987zm-2.662 2.667l-.004 16H20v-16H6.671zM12 8h10.667v13.333h2.667v-16H12.001V8z"/></symbol><symbol id="icon-mail" viewBox="0 0 32 32"><path d="M0 8.68C0 6.445 2.031 4.8 4.315 4.8h23.37C29.969 4.8 32 6.445 32 8.68v14.641c0 2.235-2.031 3.88-4.315 3.88H4.315C2.031 27.201 0 25.556 0 23.321V8.68zm1.953 3.145v11.496c0 1 .958 1.977 2.362 1.977h23.37c1.404 0 2.362-.977 2.362-1.977V11.825l-11.692 6.837a4.734 4.734 0 01-4.709 0L1.953 11.825zm28.094-2.22V8.68c0-1-.958-1.976-2.362-1.976H4.315c-1.404 0-2.362.977-2.362 1.976v.925l12.697 7.424a2.734 2.734 0 002.699 0l12.697-7.424z"/></symbol><symbol id="icon-mail_form" viewBox="0 0 32 32"><path d="M26.667 7.333c.368 0 .667.298.667.667v14.667a.667.667 0 01-.667.667H5.334a.667.667 0 01-.667-.667V8c0-.368.298-.667.667-.667h21.333zm-21.334-2A2.667 2.667 0 002.666 8v14.667a2.667 2.667 0 002.667 2.667h21.333a2.667 2.667 0 002.667-2.667V8a2.667 2.667 0 00-2.667-2.667H5.333z"/><path d="M12.175 15.752L3.313 7.394l1.372-1.455 8.862 8.358a3.668 3.668 0 005.032 0l8.862-8.358 1.372 1.455-8.862 8.358a5.667 5.667 0 01-7.776 0z"/></symbol><symbol id="icon-pencil" viewBox="0 0 32 32"><path d="M27.207 2.358l3.104 3.104c.935.899.904 2.406.008 3.302l-.002.002-3.16 3.143-6.414-6.414 3.163-3.146c.897-.895 2.403-.926 3.301.009zm-1.645 1.309a.342.342 0 00-.243.097l-.002.002-1.742 1.733 3.586 3.586 1.744-1.735c.061-.061.097-.149.097-.243s-.035-.164-.078-.205l-.009-.009-3.148-3.148a.278.278 0 00-.205-.078zm-6.149 3.162l6.414 6.414-15.209 15.222c-.28.281-.628.485-1.01.594l-5.514 1.576c-1.257.359-2.42-.803-2.061-2.06l1.576-5.515c.109-.381.313-.728.593-1.008l15.21-15.223zm.001 2.829L5.618 23.466a.34.34 0 00-.085.144l-1.411 4.938 4.937-1.411a.335.335 0 00.144-.085l13.796-13.808-3.586-3.586z"/></symbol><symbol id="icon-phone" viewBox="0 0 32 32"><path d="M25.64 20.346l-3.387-.387a2.647 2.647 0 00-2.187.76l-2.453 2.453a20.062 20.062 0 01-8.787-8.787l2.467-2.467a2.656 2.656 0 00.76-2.187l-.387-3.36c-.076-.65-.388-1.25-.877-1.686s-1.121-.675-1.776-.674H6.706c-1.507 0-2.76 1.253-2.667 2.76.707 11.387 9.813 20.48 21.187 21.187 1.507.093 2.76-1.16 2.76-2.667v-2.307c.013-1.347-1-2.48-2.347-2.64z"/></symbol><symbol id="icon-phone_24" viewBox="0 0 32 32"><path d="M28.865 21.822l-4.525-.517a3.549 3.549 0 00-2.921 1.015l-3.278 3.278A26.8 26.8 0 016.402 13.859l3.296-3.296a3.545 3.545 0 001.015-2.921l-.517-4.489A3.563 3.563 0 006.651 0H3.569C1.556 0-.118 1.675.006 3.687.95 18.9 13.117 31.049 28.312 31.993c2.013.125 3.687-1.55 3.687-3.563v-3.082c.018-1.799-1.336-3.313-3.135-3.527z"/></symbol><symbol id="icon-plus" viewBox="0 0 32 32"><path d="M13.524 13.524V6.667h2.286v6.857h6.857v2.286H15.81v6.857h-2.286V15.81H6.667v-2.286h6.857z"/></symbol><symbol id="icon-plus_45" viewBox="0 0 32 32"><path d="M14.115 16l-5.657-5.657 1.886-1.886 5.657 5.657 5.657-5.657 1.886 1.886L17.887 16l5.657 5.657-1.886 1.886-5.657-5.657-5.657 5.657-1.886-1.886L14.115 16z"/></symbol><symbol id="icon-user" viewBox="0 0 32 32"><path d="M16 4.667A5.667 5.667 0 1016 16a5.667 5.667 0 000-11.333zm-7.667 5.666a7.667 7.667 0 1115.334 0 7.667 7.667 0 01-15.334 0zM16 22.667c-6.324 0-11 3.95-11 8.333a1 1 0 01-2 0c0-5.926 6.069-10.333 13-10.333S29 25.074 29 31a1 1 0 01-2 0c0-4.383-4.676-8.333-11-8.333z"/></symbol><symbol id="colorIcon-facebook" viewBox="0 0 32 32"><path fill="var(--color1, #1877f2)" d="M27 0H5a5 5 0 00-5 5v22a5 5 0 005 5h22a5 5 0 005-5V5a5 5 0 00-5-5z"/><path fill="var(--color2, #fff)" d="M24 16c0-4.4-3.6-8-8-8s-8 3.6-8 8c0 4 2.9 7.3 6.7 7.9v-5.6h-2V16h2v-1.8c0-2 1.2-3.1 3-3.1.9 0 1.8.2 1.8.2v2h-1c-1 0-1.3.6-1.3 1.2V16h2.2l-.4 2.3h-1.9V24c4-.6 6.9-4 6.9-8z"/></symbol><symbol id="colorIcon-instagram" viewBox="0 0 32 32"><path fill="var(--color3, #f00073)" d="M27 0H5a5 5 0 00-5 5v22a5 5 0 005 5h22a5 5 0 005-5V5a5 5 0 00-5-5z"/><path fill="var(--color2, #fff)" d="M16 9.2h3.4c.8 0 1.2.2 1.5.3.4.2.7.3 1 .6s.5.6.6 1c.1.3.2.7.3 1.5v6.8c0 .8-.2 1.2-.3 1.5-.2.4-.3.7-.6 1s-.6.5-1 .6c-.3.1-.7.2-1.5.3h-6.8c-.8 0-1.2-.2-1.5-.3-.4-.2-.7-.3-1-.6s-.5-.6-.6-1c-.1-.3-.2-.7-.3-1.5v-6.8c0-.8.2-1.2.3-1.5.2-.4.3-.7.6-1s.6-.5 1-.6c.3-.1.7-.2 1.5-.3H16zm0-1.5h-3.4c-.9 0-1.5.2-2 .4s-1 .5-1.5 1-.7.9-1 1.5c-.2.5-.3 1.1-.4 2v6.8c0 .9.2 1.5.4 2s.5 1 1 1.5.9.7 1.5 1c.5.2 1.1.3 2 .4h6.8c.9 0 1.5-.2 2-.4s1-.5 1.5-1 .7-.9 1-1.5c.2-.5.3-1.1.4-2v-6.8c0-.9-.2-1.5-.4-2s-.5-1-1-1.5-.9-.7-1.5-1c-.5-.2-1.1-.3-2-.4H16z"/><path fill="var(--color2, #fff)" d="M16 11.7c-2.4 0-4.3 1.9-4.3 4.3s1.9 4.3 4.3 4.3 4.3-1.9 4.3-4.3-1.9-4.3-4.3-4.3zm0 7.1c-1.5 0-2.8-1.2-2.8-2.8 0-1.5 1.2-2.8 2.8-2.8 1.5 0 2.8 1.2 2.8 2.8 0 1.5-1.3 2.8-2.8 2.8zm4.4-6.2a1 1 0 100-2 1 1 0 000 2z"/></symbol><symbol id="colorIcon-telegram" viewBox="0 0 32 32"><path fill="var(--color4, #08c)" d="M27 0H5a5 5 0 00-5 5v22a5 5 0 005 5h22a5 5 0 005-5V5a5 5 0 00-5-5z"/><path fill="var(--color2, #fff)" d="M8.1 15.708c4.295-1.871 7.159-3.105 8.592-3.701 4.091-1.702 4.942-1.997 5.496-2.007.122-.002.394.028.571.171.149.121.19.284.21.399s.044.376.025.58c-.222 2.33-1.181 7.983-1.669 10.592-.206 1.104-.613 1.474-1.007 1.511-.855.079-1.505-.565-2.334-1.109-1.297-.85-2.029-1.379-3.288-2.209-1.455-.959-.512-1.485.317-2.346.217-.225 3.987-3.654 4.059-3.965.009-.039.018-.184-.069-.261s-.213-.05-.305-.03c-.13.03-2.201 1.399-6.214 4.107-.588.404-1.121.601-1.598.59-.526-.011-1.538-.297-2.29-.542-.923-.3-1.656-.459-1.592-.968.033-.265.399-.537 1.096-.814z"/></symbol><symbol id="colorIcon-tik_tok" viewBox="0 0 32 32"><path fill="var(--color5, #000)" d="M0 5a5 5 0 015-5h22a5 5 0 015 5v22a5 5 0 01-5 5H5a5 5 0 01-5-5V5z"/><path fill="var(--color6, #25f4ee)" d="M14.498 14.3v-.623a4.997 4.997 0 00-.654-.046 4.849 4.849 0 00-2.774 8.821 4.832 4.832 0 01-1.302-3.303 4.852 4.852 0 014.73-4.848z"/><path fill="var(--color6, #25f4ee)" d="M14.616 21.362c1.191 0 2.166-.95 2.209-2.132l.004-10.561h1.928A3.783 3.783 0 0118.696 8h-2.632l-.003 10.561a2.215 2.215 0 01-2.209 2.132c-.37 0-.718-.093-1.028-.256a2.198 2.198 0 001.793.925zm7.742-9.108v-.587a3.624 3.624 0 01-1.995-.594 3.667 3.667 0 001.995 1.182z"/><path fill="var(--color7, #fe2c55)" d="M20.363 11.072a3.64 3.64 0 01-.9-2.403h-.704a3.652 3.652 0 001.604 2.403zm-6.516 5.19c-1.22 0-2.212.993-2.212 2.214 0 .851.484 1.591 1.188 1.961a2.193 2.193 0 01-.42-1.292c0-1.221.992-2.214 2.212-2.214.228 0 .448.039.654.103v-2.691a4.997 4.997 0 00-.654-.046c-.039 0-.075.004-.114.004v2.065a2.23 2.23 0 00-.654-.103z"/><path fill="var(--color7, #fe2c55)" d="M22.358 12.253V14.3a6.265 6.265 0 01-3.663-1.178v5.357a4.856 4.856 0 01-4.848 4.852 4.834 4.834 0 01-2.778-.879A4.84 4.84 0 0014.615 24a4.856 4.856 0 004.848-4.852v-5.357a6.265 6.265 0 003.663 1.178v-2.634c-.267 0-.523-.028-.768-.082z"/><path fill="var(--color2, #fff)" d="M18.695 18.479v-5.357a6.265 6.265 0 003.663 1.178v-2.047a3.657 3.657 0 01-1.995-1.182 3.678 3.678 0 01-1.607-2.403h-1.928l-.003 10.561a2.215 2.215 0 01-2.209 2.132c-.74 0-1.391-.367-1.796-.922a2.222 2.222 0 01-1.188-1.961c0-1.221.992-2.214 2.212-2.214.228 0 .448.039.654.103v-2.064a4.846 4.846 0 00-3.428 8.148 4.824 4.824 0 002.778.879 4.858 4.858 0 004.848-4.852z"/></symbol><symbol id="colorIcon-twitter" viewBox="0 0 32 32"><path fill="var(--color8, #1da1f2)" d="M27 0H5a5 5 0 00-5 5v22a5 5 0 005 5h22a5 5 0 005-5V5a5 5 0 00-5-5z"/><path fill="var(--color2, #fff)" d="M24 11c-.6.3-1.2.4-1.9.5.7-.4 1.2-1 1.4-1.8-.6.4-1.3.6-2.1.8-.6-.6-1.5-1-2.4-1-2.1 0-3.7 2-3.2 4-2.7-.1-5.1-1.4-6.8-3.4-.9 1.5-.4 3.4 1 4.4-.5 0-1-.2-1.5-.4 0 1.5 1.1 2.9 2.6 3.3-.5.1-1 .2-1.5.1.4 1.3 1.6 2.3 3.1 2.3-1.2.9-3 1.4-4.7 1.2 1.5.9 3.2 1.5 5 1.5 6.1 0 9.5-5.1 9.3-9.8.7-.4 1.3-1 1.7-1.7z"/></symbol><symbol id="colorIcon-facebook2" viewBox="0 0 32 32"><path fill="var(--color9, #3d5a98)" d="M0 5a5 5 0 015-5h22a5 5 0 015 5v22a5 5 0 01-5 5H5a5 5 0 01-5-5V5z"/><path fill="var(--color2, #fff)" d="M17.49 26v-8.667h2.948l.441-3.377H17.49V11.8c0-.978.276-1.645 1.696-1.645h1.813V7.129A24.826 24.826 0 0018.356 7c-2.611 0-4.409 1.57-4.409 4.465v2.491h-2.948v3.378h2.948v8.667h3.542z"/></symbol><symbol id="colorIcon-viber" viewBox="0 0 32 32"><path fill="var(--color10, #7d529e)" d="M0 5a5 5 0 015-5h22a5 5 0 015 5v22a5 5 0 01-5 5H5a5 5 0 01-5-5V5z"/><path fill="var(--color2, #fff)" d="M11.965 10.202a.82.82 0 00-.537.106h-.014c-.375.22-.713.497-1.001.823-.24.277-.37.557-.404.827-.02.16-.006.322.041.475l.018.01c.27.793.622 1.556 1.052 2.274a13.385 13.385 0 002.03 2.775l.024.034.038.028.023.027.028.024a13.575 13.575 0 002.782 2.04c1.155.629 1.856.926 2.277 1.05v.006c.123.038.235.055.348.055.358-.026.698-.172.964-.414.325-.288.6-.627.814-1.004v-.007c.201-.38.133-.738-.157-.981A12.084 12.084 0 0018.41 17c-.448-.243-.903-.096-1.087.15l-.393.496c-.202.246-.568.212-.568.212l-.01.006c-2.731-.697-3.46-3.462-3.46-3.462s-.034-.376.219-.568l.492-.396c.236-.192.4-.646.147-1.094a11.817 11.817 0 00-1.347-1.88.746.746 0 00-.44-.263l.002.001zM16.58 9a.498.498 0 00-.5.5.5.5 0 00.5.5c1.264 0 2.314.413 3.145 1.205.427.433.76.946.978 1.508.219.563.319 1.164.293 1.766a.499.499 0 00.839.389.497.497 0 00.161-.347 5.36 5.36 0 00-.361-2.17 5.435 5.435 0 00-1.204-1.854l-.01-.01C19.39 9.502 18.086 9 16.58 9z"/><path fill="var(--color2, #fff)" d="M16.545 10.644a.498.498 0 00-.5.5.5.5 0 00.5.5h.017c.912.065 1.576.369 2.041.868.477.514.724 1.153.705 1.943a.502.502 0 00.488.512.502.502 0 00.512-.488c.024-1.037-.31-1.932-.972-2.646v-.002c-.677-.726-1.606-1.11-2.724-1.185l-.017-.002-.05.001z"/><path fill="var(--color2, #fff)" d="M16.526 12.319a.493.493 0 00-.372.121.508.508 0 00-.172.351.49.49 0 00.134.367.51.51 0 00.358.159c.418.022.685.148.853.317s.295.443.318.87a.507.507 0 00.159.357.497.497 0 00.56.083.505.505 0 00.279-.493c-.032-.6-.22-1.13-.605-1.52-.387-.39-.914-.58-1.512-.612z"/><path fill="var(--color2, #fff)" d="M11.067 6.384a22.159 22.159 0 019.664 0l.339.075a5.156 5.156 0 013.872 3.763 19.711 19.711 0 010 9.7 5.154 5.154 0 01-3.872 3.763l-.34.075a22.123 22.123 0 01-6.077.499L12 26.633a.743.743 0 01-.749.149.747.747 0 01-.492-.584l-.439-2.622a5.154 5.154 0 01-3.465-3.654 19.711 19.711 0 010-9.7 5.16 5.16 0 013.872-3.763l.339-.075zm9.337 1.463a20.656 20.656 0 00-9.01 0l-.34.076a3.657 3.657 0 00-2.744 2.668 18.224 18.224 0 000 8.962 3.657 3.657 0 002.745 2.668l.09.02a.749.749 0 01.576.608l.294 1.758 1.872-1.675a.742.742 0 01.553-.19 20.644 20.644 0 005.964-.445l.339-.076a3.65 3.65 0 002.745-2.668c.746-2.94.746-6.021 0-8.962a3.657 3.657 0 00-2.745-2.668l-.339-.076z"/></symbol><symbol id="colorIcon-youtube" viewBox="0 0 32 32"><path fill="var(--color11, #f00)" d="M27 0H5a5 5 0 00-5 5v22a5 5 0 005 5h22a5 5 0 005-5V5a5 5 0 00-5-5z"/><path fill="var(--color2, #fff)" d="M23.6 12.1c-.2-.7-.7-1.2-1.4-1.4-1.2-.3-6.3-.3-6.3-.3s-5 0-6.3.3c-.7.2-1.2.7-1.4 1.4C8 13.4 8 16 8 16s0 2.6.3 3.9c.2.7.7 1.2 1.4 1.4 1.2.3 6.3.3 6.3.3s5 0 6.3-.3c.7-.2 1.2-.7 1.4-1.4.3-1.3.3-3.9.3-3.9s0-2.6-.4-3.9zm-9.2 6.3v-4.8l4.2 2.4-4.2 2.4z"/></symbol></defs></svg>