<svg width="204" height="40" fill="none" xmlns="http://www.w3.org/2000/svg"><path d="M189.797 20.615l-4.883 9.473V6.358l4.883.195v14.062zm8.789-1.152l4.883-9.59v23.828l-4.883-.195V19.463zM190.188 33.7h-5.274l13.477-27.344h5.078L190.188 33.7z" fill="url(#paint0_linear_3410_21974)"/><path d="M174.93 12.51V33.7h-4.883V12.51h4.883zm-11.524-1.856l.196-4.297h16.992l.195 4.297h-17.383z" fill="url(#paint1_linear_3410_21974)"/><path d="M153.074 15.479l1.953-9.122h1.016l6.055 27.344h-4.883l-1.563-5.86h-5.664l.899-3.905h4.082l-1.895-8.457zm.196-9.122l-6.407 27.344h-4.883l6.25-27.344h5.04z" fill="url(#paint2_linear_3410_21974)"/><path d="M134.891 12.51V33.7h-4.883V12.51h4.883zm-11.524-1.856l.195-4.297h16.993l.195 4.297h-17.383z" fill="url(#paint3_linear_3410_21974)"/><path d="M104.664 33.701V6.162h4.883v27.54h-4.883zm6.66-4.297h3.106c1.953 0 2.929-.65 2.929-1.953v-4.297c0-1.302-.976-1.953-2.929-1.953h-3.125v-4.297h4.101c4.558.26 6.836 2.214 6.836 5.86v5.078c0 3.906-2.278 5.86-6.836 5.86h-4.082v-4.298z" fill="url(#paint4_linear_3410_21974)"/><path d="M90.254 15.479l1.953-9.122h1.016l6.054 27.344h-4.883l-4.14-18.223zm.195-9.122l-6.406 27.344H79.16l6.25-27.344h5.04z" fill="url(#paint5_linear_3410_21974)"/><path d="M69.238 23.799l-4.004.273c-4.557 0-6.836-1.953-6.836-5.86V6.3l4.883-.195v11.523c0 1.302.977 1.953 2.93 1.953l3.027-.234V23.8zm1.856-17.305l4.883-.195v19.726c0 4.688-2.149 7.227-6.446 7.618-1.836.169-3.45.254-4.844.254-1.848 0-3.294-.15-4.335-.45l.195-3.906c2.344.13 4.687.195 7.031.195 2.344 0 3.516-.65 3.516-1.953V6.494z" fill="url(#paint6_linear_3410_21974)"/><path d="M47.695 29.404c1.797-.052 2.696-.703 2.696-1.953v-2.93c0-1.289-.899-2.09-2.696-2.402v-4.18c1.797-.312 2.696-1.113 2.696-2.402v-2.93c0-1.302-.847-1.953-2.54-1.953h-.156V6.357h.742c4.558 0 6.836 1.954 6.836 5.86v3.32c0 2.344-1.302 3.841-3.906 4.492 2.604.651 3.906 2.149 3.906 4.492v3.32c0 3.907-2.278 5.86-6.836 5.86h-.742v-4.297zm-1.972-7.422h-4.356v-3.906h4.356v3.906zm0-11.328h-6.075l-.195-4.297h6.27v4.297zm0 23.047h-6.27l.195-4.297h6.075v4.297z" fill="url(#paint7_linear_3410_21974)"/><path d="M27.656 18.076h6.719v3.906h-6.719v-3.906zm0 11.328h8.672l-.195 4.297h-8.477v-4.297zm0-23.047h8.477l.195 4.297h-8.672V6.357zm-2.07 0v27.344h-4.883V6.357h4.883z" fill="url(#paint8_linear_3410_21974)"/><path d="M6.875 6.357h3.867c4.557 0 6.836 1.954 6.836 5.86v5.078c0 3.646-2.278 5.599-6.836 5.86H6.875v-4.298h2.89c1.954 0 2.93-.65 2.93-1.953v-4.297c0-1.302-.976-1.953-2.93-1.953h-2.89V6.357zm-1.992 0v27.344H0V6.357h4.883z" fill="url(#paint9_linear_3410_21974)"/><defs><linearGradient id="paint0_linear_3410_21974" x1="193.529" y1="8.222" x2="194.981" y2="33.622" gradientUnits="userSpaceOnUse"><stop stop-color="#E5B82F"/><stop offset="1" stop-color="#F8E73D"/></linearGradient><linearGradient id="paint1_linear_3410_21974" x1="171.477" y1="8.222" x2="173.027" y2="33.61" gradientUnits="userSpaceOnUse"><stop stop-color="#E5B82F"/><stop offset="1" stop-color="#F8E73D"/></linearGradient><linearGradient id="paint2_linear_3410_21974" x1="151.321" y1="8.222" x2="152.661" y2="33.634" gradientUnits="userSpaceOnUse"><stop stop-color="#E5B82F"/><stop offset="1" stop-color="#F8E73D"/></linearGradient><linearGradient id="paint3_linear_3410_21974" x1="131.438" y1="8.222" x2="132.987" y2="33.61" gradientUnits="userSpaceOnUse"><stop stop-color="#E5B82F"/><stop offset="1" stop-color="#F8E73D"/></linearGradient><linearGradient id="paint4_linear_3410_21974" x1="112.825" y1="8.04" x2="114.38" y2="33.611" gradientUnits="userSpaceOnUse"><stop stop-color="#E5B82F"/><stop offset="1" stop-color="#F8E73D"/></linearGradient><linearGradient id="paint5_linear_3410_21974" x1="88.5" y1="8.222" x2="89.841" y2="33.634" gradientUnits="userSpaceOnUse"><stop stop-color="#E5B82F"/><stop offset="1" stop-color="#F8E73D"/></linearGradient><linearGradient id="paint6_linear_3410_21974" x1="66.56" y1="7.998" x2="68.143" y2="33.803" gradientUnits="userSpaceOnUse"><stop stop-color="#E5B82F"/><stop offset="1" stop-color="#F8E73D"/></linearGradient><linearGradient id="paint7_linear_3410_21974" x1="46.798" y1="8.222" x2="48.5" y2="33.591" gradientUnits="userSpaceOnUse"><stop stop-color="#E5B82F"/><stop offset="1" stop-color="#F8E73D"/></linearGradient><linearGradient id="paint8_linear_3410_21974" x1="27.958" y1="8.222" x2="29.68" y2="33.588" gradientUnits="userSpaceOnUse"><stop stop-color="#E5B82F"/><stop offset="1" stop-color="#F8E73D"/></linearGradient><linearGradient id="paint9_linear_3410_21974" x1="8.161" y1="8.222" x2="9.694" y2="33.612" gradientUnits="userSpaceOnUse"><stop stop-color="#E5B82F"/><stop offset="1" stop-color="#F8E73D"/></linearGradient></defs></svg>