<svg width="225" height="44" fill="none" xmlns="http://www.w3.org/2000/svg"><path d="M208.977 22.677l-5.372 10.42V6.993l5.372.215v15.469zm9.668-1.268l5.371-10.549v26.211l-5.371-.215V21.41zm-9.239 15.662h-5.801L218.43 6.993h5.586l-14.61 30.078z" fill="url(#paint0_linear_3410_21943)"/><path d="M192.723 13.76v23.311h-5.371v-23.31h5.371zm-12.676-2.04l.215-4.727h18.691l.215 4.727h-19.121z" fill="url(#paint1_linear_3410_21943)"/><path d="M168.682 17.026l2.148-10.033h1.117l6.66 30.078h-5.371l-1.718-6.445h-6.231l.988-4.297h4.491l-2.084-9.303zm.214-10.033l-7.046 30.078h-5.371l6.875-30.078h5.542z" fill="url(#paint2_linear_3410_21943)"/><path d="M148.68 13.76v23.311h-5.371v-23.31h5.371zm-12.676-2.04l.215-4.727h18.691l.215 4.727h-19.121z" fill="url(#paint3_linear_3410_21943)"/><path d="M114.23 37.071V6.778h5.372v30.293h-5.372zm7.327-4.726h3.416c2.148 0 3.222-.716 3.222-2.149V25.47c0-1.433-1.074-2.149-3.222-2.149h-3.438v-4.726h4.512c5.013.286 7.519 2.435 7.519 6.445v5.586c0 4.297-2.506 6.445-7.519 6.445h-4.49v-4.726z" fill="url(#paint4_linear_3410_21943)"/><path d="M99.28 17.026l2.148-10.033h1.117l6.66 30.078h-5.371l-4.555-20.045zm.214-10.033l-7.047 30.078h-5.37L93.95 6.993h5.543z" fill="url(#paint5_linear_3410_21943)"/><path d="M76.162 26.179l-4.404.3c-5.013 0-7.52-2.148-7.52-6.445V6.93l5.371-.215V19.39c0 1.432 1.075 2.148 3.223 2.148l3.33-.258v4.899zm2.041-19.035l5.371-.215v21.699c0 5.156-2.363 7.95-7.09 8.379-2.02.186-3.795.28-5.328.28-2.034 0-3.623-.166-4.77-.495l.216-4.297c2.578.143 5.156.215 7.734.215 2.578 0 3.867-.716 3.867-2.149V7.144z" fill="url(#paint6_linear_3410_21943)"/><path d="M52.465 32.345c1.976-.058 2.965-.774 2.965-2.149v-3.222c0-1.418-.989-2.3-2.965-2.643v-4.598c1.976-.343 2.965-1.224 2.965-2.642v-3.223c0-1.432-.931-2.148-2.793-2.148h-.172V6.993h.816c5.013 0 7.52 2.149 7.52 6.445v3.653c0 2.578-1.433 4.225-4.297 4.941 2.864.716 4.297 2.363 4.297 4.942v3.652c0 4.297-2.507 6.445-7.52 6.445h-.816v-4.726zm-2.17-8.164h-4.791v-4.297h4.79v4.297zm0-12.461h-6.682l-.215-4.727h6.897v4.727zm0 25.351h-6.897l.215-4.726h6.682v4.726z" fill="url(#paint7_linear_3410_21943)"/><path d="M30.422 19.884h7.39v4.297h-7.39v-4.297zm0 12.46h9.539l-.215 4.727h-9.324v-4.726zm0-25.35h9.324l.215 4.726h-9.54V6.993zm-2.277 0V37.07h-5.372V6.993h5.372z" fill="url(#paint8_linear_3410_21943)"/><path d="M7.563 6.993h4.253c5.013 0 7.52 2.149 7.52 6.445v5.586c0 4.01-2.507 6.16-7.52 6.446H7.562v-4.727h3.18c2.149 0 3.223-.716 3.223-2.148v-4.727c0-1.432-1.074-2.148-3.223-2.148h-3.18V6.993zm-2.192 0v30.078H0V6.993h5.371z" fill="url(#paint9_linear_3410_21943)"/><defs><linearGradient id="paint666" x1="213.082" y1="9.044" x2="214.679" y2="36.984" gradientUnits="userSpaceOnUse"><stop stop-color="#E5B82F"/><stop offset="1" stop-color="#F8E73D"/></linearGradient><linearGradient id="paint1_linear_3410_21943" x1="188.925" y1="9.044" x2="190.629" y2="36.971" gradientUnits="userSpaceOnUse"><stop stop-color="#E5B82F"/><stop offset="1" stop-color="#F8E73D"/></linearGradient><linearGradient id="paint2_linear_3410_21943" x1="166.753" y1="9.044" x2="168.227" y2="36.998" gradientUnits="userSpaceOnUse"><stop stop-color="#E5B82F"/><stop offset="1" stop-color="#F8E73D"/></linearGradient><linearGradient id="paint3_linear_3410_21943" x1="144.882" y1="9.044" x2="146.586" y2="36.971" gradientUnits="userSpaceOnUse"><stop stop-color="#E5B82F"/><stop offset="1" stop-color="#F8E73D"/></linearGradient><linearGradient id="paint4_linear_3410_21943" x1="123.208" y1="8.844" x2="124.918" y2="36.971" gradientUnits="userSpaceOnUse"><stop stop-color="#E5B82F"/><stop offset="1" stop-color="#F8E73D"/></linearGradient><linearGradient id="paint5_linear_3410_21943" x1="97.35" y1="9.044" x2="98.825" y2="36.998" gradientUnits="userSpaceOnUse"><stop stop-color="#E5B82F"/><stop offset="1" stop-color="#F8E73D"/></linearGradient><linearGradient id="paint6_linear_3410_21943" x1="73.216" y1="8.798" x2="74.957" y2="37.184" gradientUnits="userSpaceOnUse"><stop stop-color="#E5B82F"/><stop offset="1" stop-color="#F8E73D"/></linearGradient><linearGradient id="paint7_linear_3410_21943" x1="51.478" y1="9.044" x2="53.35" y2="36.95" gradientUnits="userSpaceOnUse"><stop stop-color="#E5B82F"/><stop offset="1" stop-color="#F8E73D"/></linearGradient><linearGradient id="paint8_linear_3410_21943" x1="30.753" y1="9.044" x2="32.648" y2="36.947" gradientUnits="userSpaceOnUse"><stop stop-color="#E5B82F"/><stop offset="1" stop-color="#F8E73D"/></linearGradient><linearGradient id="paint9_linear_3410_21943" x1="8.977" y1="9.044" x2="10.663" y2="36.974" gradientUnits="userSpaceOnUse"><stop stop-color="#E5B82F"/><stop offset="1" stop-color="#F8E73D"/></linearGradient></defs></svg>