<svg width="32" height="32" viewBox="0 0 32 32" fill="none" xmlns="http://www.w3.org/2000/svg">
<rect width="32" height="32" rx="5" fill="url(#paint0_linear_685_12864)"/>
<path d="M25.0853 18.7736L20.6098 16.7682L20.5975 16.7625C20.3651 16.6631 20.1117 16.6232 19.86 16.6464C19.6084 16.6697 19.3665 16.7552 19.1563 16.8955C19.1315 16.9118 19.1078 16.9296 19.085 16.9487L16.7727 18.9199C15.3078 18.2084 13.7954 16.7074 13.0839 15.2614L15.058 12.914C15.077 12.8902 15.095 12.8665 15.1121 12.8408C15.2493 12.6312 15.3326 12.3908 15.3544 12.1412C15.3763 11.8916 15.3362 11.6404 15.2375 11.4101V11.3987L13.2264 6.91562C13.096 6.61472 12.8717 6.36406 12.5872 6.20106C12.3026 6.03806 11.973 5.97146 11.6474 6.01121C10.3602 6.1806 9.17854 6.8128 8.3233 7.78972C7.46806 8.76664 6.99768 10.0215 7.00001 11.3199C7.00001 18.8629 13.1371 25 20.6801 25C21.9785 25.0023 23.2333 24.5319 24.2102 23.6767C25.1872 22.8214 25.8194 21.6398 25.9887 20.3525C26.0286 20.0271 25.9621 19.6976 25.7993 19.413C25.6365 19.1285 25.386 18.9042 25.0853 18.7736ZM20.6801 23.48C17.4561 23.4765 14.3652 22.1942 12.0855 19.9145C9.80582 17.6348 8.52354 14.5438 8.52002 11.3199C8.51645 10.3922 8.85067 9.49489 9.46028 8.7956C10.0699 8.0963 10.9132 7.64282 11.8327 7.51982C11.8323 7.52361 11.8323 7.52743 11.8327 7.53122L13.8277 11.9963L11.864 14.3466C11.8441 14.3695 11.826 14.394 11.8099 14.4197C11.6669 14.6391 11.5831 14.8917 11.5664 15.153C11.5498 15.4143 11.6009 15.6755 11.7149 15.9113C12.5756 17.6716 14.3493 19.432 16.1286 20.2917C16.3661 20.4047 16.6288 20.454 16.891 20.435C17.1533 20.4161 17.4062 20.3294 17.6249 20.1834C17.6493 20.167 17.6727 20.1493 17.6952 20.1302L20.0047 18.1599L24.4697 20.1597H24.4801C24.3586 21.0805 23.9058 21.9255 23.2064 22.5366C22.507 23.1477 21.6089 23.4831 20.6801 23.48Z" fill="white"/>
<defs>
<linearGradient id="paint0_linear_685_12864" x1="30.5" y1="-5.58794e-09" x2="-2.5" y2="32" gradientUnits="userSpaceOnUse">
<stop stop-color="#F9E861"/>
<stop offset="0.526042" stop-color="#85E3CA"/>
<stop offset="1" stop-color="#1163C9"/>
</linearGradient>
</defs>
</svg>
