<svg width="32" height="32" viewBox="0 0 32 32" fill="none" xmlns="http://www.w3.org/2000/svg">
<rect width="32" height="32" rx="5" fill="url(#paint0_linear_685_12860)"/>
<path fill-rule="evenodd" clip-rule="evenodd" d="M5.34971 11.0001C5.34971 9.47382 6.70176 8.3501 8.22193 8.3501H23.7775C25.2977 8.3501 26.6497 9.47382 26.6497 11.0001V11.9882C26.6498 11.9957 26.6498 12.0032 26.6497 12.0107V21.0001C26.6497 22.5264 25.2977 23.6501 23.7775 23.6501H8.22193C6.70176 23.6501 5.34971 22.5264 5.34971 21.0001V12.0108C5.34958 12.0033 5.34958 11.9957 5.34971 11.9882V11.0001ZM6.64971 13.1481V21.0001C6.64971 21.683 7.2875 22.3501 8.22193 22.3501H23.7775C24.7119 22.3501 25.3497 21.683 25.3497 21.0001V13.1481L17.5668 17.8179C16.6145 18.3892 15.3849 18.3892 14.4326 17.8179L6.64971 13.1481ZM25.3497 11.6321L16.898 16.7031C16.3574 17.0275 15.6421 17.0275 15.1015 16.7031L6.64971 11.6321V11.0001C6.64971 10.3172 7.2875 9.6501 8.22193 9.6501H23.7775C24.7119 9.6501 25.3497 10.3172 25.3497 11.0001V11.6321Z" fill="white"/>
<defs>
<linearGradient id="paint0_linear_685_12860" x1="30.5" y1="-5.58794e-09" x2="-2.5" y2="32" gradientUnits="userSpaceOnUse">
<stop stop-color="#F9E861"/>
<stop offset="0.526042" stop-color="#85E3CA"/>
<stop offset="1" stop-color="#1163C9"/>
</linearGradient>
</defs>
</svg>
