<svg width="32" height="32" viewBox="0 0 32 32" fill="none" xmlns="http://www.w3.org/2000/svg">
<rect width="32" height="32" rx="5" fill="url(#paint0_linear_685_12856)"/>
<path d="M16 10.2858C15.3707 10.2858 14.7555 10.4952 14.2323 10.8877C13.709 11.2801 13.3012 11.8379 13.0604 12.4905C12.8196 13.1431 12.7565 13.8612 12.8793 14.554C13.0021 15.2468 13.3051 15.8832 13.7501 16.3826C14.1951 16.8821 14.762 17.2223 15.3793 17.3601C15.9965 17.4979 16.6362 17.4271 17.2176 17.1568C17.799 16.8865 18.296 16.4287 18.6456 15.8414C18.9952 15.2541 19.1818 14.5636 19.1818 13.8572C19.1818 12.91 18.8466 12.0016 18.2499 11.3318C17.6532 10.662 16.8439 10.2858 16 10.2858ZM16 16.0001C15.6224 16.0001 15.2533 15.8744 14.9394 15.639C14.6254 15.4035 14.3807 15.0688 14.2362 14.6773C14.0917 14.2857 14.0539 13.8548 14.1276 13.4392C14.2013 13.0235 14.3831 12.6417 14.6501 12.342C14.9171 12.0423 15.2572 11.8382 15.6276 11.7555C15.9979 11.6728 16.3817 11.7153 16.7306 11.8775C17.0794 12.0396 17.3776 12.3143 17.5874 12.6667C17.7971 13.0191 17.9091 13.4334 17.9091 13.8572C17.9091 14.4255 17.708 14.9706 17.3499 15.3725C16.9919 15.7743 16.5063 16.0001 16 16.0001ZM16 6C14.1441 6.00236 12.3649 6.83093 11.0526 8.30394C9.74028 9.77694 9.00211 11.7741 9 13.8572C9 16.6608 10.1542 19.6323 12.3409 22.4511C13.3235 23.7248 14.4293 24.8717 15.6381 25.8707C15.7451 25.9549 15.8725 26 16.0032 26C16.1338 26 16.2613 25.9549 16.3683 25.8707C17.5748 24.8713 18.6785 23.7244 19.6591 22.4511C21.8426 19.6323 23 16.6608 23 13.8572C22.9979 11.7741 22.2597 9.77694 20.9474 8.30394C19.6351 6.83093 17.8559 6.00236 16 6ZM16 24.393C14.6851 23.2323 10.2727 18.9689 10.2727 13.8572C10.2727 12.1522 10.8761 10.5171 11.9502 9.31149C13.0243 8.10589 14.481 7.42859 16 7.42859C17.519 7.42859 18.9757 8.10589 20.0498 9.31149C21.1239 10.5171 21.7273 12.1522 21.7273 13.8572C21.7273 18.9671 17.3149 23.2323 16 24.393Z" fill="white"/>
<defs>
<linearGradient id="paint0_linear_685_12856" x1="30.5" y1="-5.58794e-09" x2="-2.5" y2="32" gradientUnits="userSpaceOnUse">
<stop stop-color="#F9E861"/>
<stop offset="0.526042" stop-color="#85E3CA"/>
<stop offset="1" stop-color="#1163C9"/>
</linearGradient>
</defs>
</svg>
