<svg aria-hidden="true" style="position: absolute; width: 0; height: 0; overflow: hidden;" version="1.1" xmlns="http://www.w3.org/2000/svg" xmlns:xlink="http://www.w3.org/1999/xlink">
<defs>

<symbol id="icon-arrow-24" viewBox="0 0 32 32">
<path d="M17.563 16l-6.6-6.6 1.885-1.885 8.485 8.485-8.485 8.485-1.885-1.885 6.6-6.6z"></path>
</symbol>

<symbol id="icon-btn_arrow" viewBox="0 0 32 32">
<path d="M15.758 16l-7.425-7.425 2.121-2.121 9.546 9.546-9.546 9.546-2.121-2.121 7.425-7.425z"></path>
</symbol>

<symbol id="icon-btn_big_arrow" viewBox="0 0 32 32">
<path d="M18.149 16l-9.075-9.075 2.592-2.592 11.667 11.667-11.667 11.667-2.592-2.592 9.075-9.075z"></path>
</symbol>

<symbol id="icon-burger" viewBox="0 0 32 32">
<path stroke-linejoin="miter" stroke-linecap="round" stroke-miterlimit="4" stroke-width="1.4545" d="M7.273 10.182h17.455"></path>
<path stroke-linejoin="miter" stroke-linecap="round" stroke-miterlimit="4" stroke-width="1.4545" d="M7.273 16h17.455"></path>
<path stroke-linejoin="miter" stroke-linecap="round" stroke-miterlimit="4" stroke-width="1.4545" d="M7.273 21.818h17.455"></path>
</symbol>

<symbol id="icon-calendar" viewBox="0 0 32 32">
<path d="M22.667 4h5.333c0.354 0 0.693 0.14 0.943 0.391s0.391 0.589 0.391 0.943v21.333c0 0.354-0.14 0.693-0.391 0.943s-0.589 0.391-0.943 0.391h-24c-0.354 0-0.693-0.14-0.943-0.391s-0.39-0.589-0.39-0.943v-21.333c0-0.354 0.14-0.693 0.39-0.943s0.589-0.391 0.943-0.391h5.333v-2.667h2.667v2.667h8v-2.667h2.667v2.667zM20 6.667h-8v2.667h-2.667v-2.667h-4v5.333h21.333v-5.333h-4v2.667h-2.667v-2.667zM26.667 14.667h-21.333v10.667h21.333v-10.667z"></path>
</symbol>

<symbol id="icon-check" viewBox="0 0 32 32">
<path d="M13.333 20.229l12.256-12.257 1.887 1.885-14.143 14.143-8.485-8.485 1.885-1.885 6.6 6.6z"></path>
</symbol>

<symbol id="icon-clock" viewBox="0 0 32 32">
<path d="M16 2.666c7.36 0 13.333 5.973 13.333 13.333s-5.973 13.333-13.333 13.333c-7.36 0-13.333-5.973-13.333-13.333s5.973-13.333 13.333-13.333zM16 26.666c5.893 0 10.667-4.773 10.667-10.667s-4.773-10.667-10.667-10.667-10.667 4.773-10.667 10.667c0 5.893 4.773 10.667 10.667 10.667zM20.715 9.4l1.885 1.885-6.6 6.6-1.885-1.885 6.6-6.6z"></path>
</symbol>

<symbol id="icon-close" viewBox="0 0 32 32">
<path stroke-linejoin="round" stroke-linecap="round" stroke-miterlimit="4" stroke-width="1.4545" d="M24.727 7.273l-17.455 17.455"></path>
<path stroke-linejoin="round" stroke-linecap="round" stroke-miterlimit="4" stroke-width="1.4545" d="M7.273 7.273l17.455 17.455"></path>
</symbol>

<symbol id="icon-copy" viewBox="0 0 32 32">
<path d="M9.333 8v-4c0-0.354 0.14-0.693 0.391-0.943s0.589-0.391 0.943-0.391h16c0.354 0 0.693 0.14 0.943 0.391s0.391 0.589 0.391 0.943v18.667c0 0.354-0.14 0.693-0.391 0.943s-0.589 0.391-0.943 0.391h-4v4c0 0.736-0.6 1.333-1.343 1.333h-15.981c-0.176 0.001-0.35-0.033-0.513-0.099s-0.311-0.164-0.436-0.288c-0.125-0.124-0.224-0.271-0.291-0.433s-0.103-0.336-0.103-0.512l0.004-18.667c0-0.736 0.6-1.333 1.343-1.333h3.987zM6.671 10.667l-0.004 16h13.333v-16h-13.329zM12 8h10.667v13.333h2.667v-16h-13.333v2.667z"></path>
</symbol>

<symbol id="icon-mail" viewBox="0 0 32 32">
<path d="M0 8.68c0-2.235 2.031-3.88 4.315-3.88h23.37c2.284 0 4.315 1.645 4.315 3.88v1.447c0 0.011 0 0.022 0 0.033v13.161c0 2.235-2.031 3.88-4.315 3.88h-23.37c-2.284 0-4.315-1.645-4.315-3.88v-13.161c-0-0.011-0-0.022 0-0.033v-1.447zM1.953 11.825v11.496c0 1 0.958 1.977 2.362 1.977h23.37c1.404 0 2.362-0.977 2.362-1.977v-11.496l-11.692 6.837c-1.431 0.836-3.278 0.836-4.709 0l-11.693-6.837zM30.047 9.605v-0.925c0-1-0.958-1.976-2.362-1.976h-23.37c-1.404 0-2.362 0.977-2.362 1.976v0.925l12.697 7.424c0.812 0.475 1.887 0.475 2.699 0l12.697-7.424z"></path>
</symbol>

<symbol id="icon-mail_form" viewBox="0 0 32 32">
<path d="M26.667 7.333c0.368 0 0.667 0.298 0.667 0.667v14.667c0 0.368-0.299 0.667-0.667 0.667h-21.333c-0.368 0-0.667-0.299-0.667-0.667v-14.667c0-0.368 0.298-0.667 0.667-0.667h21.333zM5.333 5.333c-1.473 0-2.667 1.194-2.667 2.667v14.667c0 1.473 1.194 2.667 2.667 2.667h21.333c1.473 0 2.667-1.194 2.667-2.667v-14.667c0-1.473-1.194-2.667-2.667-2.667h-21.333z"></path>
<path d="M12.175 15.752l-8.862-8.358 1.372-1.455 8.862 8.358c1.413 1.332 3.619 1.332 5.032 0l8.862-8.358 1.372 1.455-8.862 8.358c-2.183 2.059-5.593 2.059-7.776 0z"></path>
</symbol>

<symbol id="icon-pencil" viewBox="0 0 32 32">
<path d="M27.207 2.358l3.104 3.104c0.935 0.899 0.904 2.406 0.008 3.302l-0.002 0.002-3.16 3.143-6.414-6.414 3.163-3.146c0.897-0.895 2.403-0.926 3.301 0.009zM25.562 3.667c-0.095 0-0.182 0.036-0.243 0.097l-0.002 0.002-1.742 1.733 3.586 3.586 1.744-1.735c-0 0 0-0 0 0 0.061-0.061 0.097-0.149 0.097-0.243s-0.035-0.164-0.078-0.205l-0.009-0.009-3.148-3.148c-0.041-0.043-0.11-0.078-0.205-0.078z"></path>
<path d="M19.413 6.829l6.414 6.414-15.209 15.222c-0.28 0.281-0.628 0.485-1.010 0.594l-5.514 1.576c-1.257 0.359-2.42-0.803-2.061-2.060l1.576-5.515c0.109-0.381 0.313-0.728 0.593-1.008l15.21-15.223zM19.414 9.658l-13.796 13.808c-0.040 0.040-0.069 0.090-0.085 0.144l-1.411 4.938 4.937-1.411c0.055-0.016 0.104-0.045 0.144-0.085l13.796-13.808-3.586-3.586z"></path>
</symbol>

<symbol id="icon-phone" viewBox="0 0 32 32">
<path d="M25.64 20.346l-3.387-0.387c-0.398-0.047-0.802-0.003-1.181 0.129s-0.723 0.347-1.006 0.631l-2.453 2.453c-3.785-1.925-6.862-5.002-8.787-8.787l2.467-2.467c0.573-0.573 0.853-1.373 0.76-2.187l-0.387-3.36c-0.076-0.65-0.388-1.25-0.877-1.686s-1.121-0.675-1.776-0.674h-2.307c-1.507 0-2.76 1.253-2.667 2.76 0.707 11.387 9.813 20.48 21.187 21.187 1.507 0.093 2.76-1.16 2.76-2.667v-2.307c0.013-1.347-1-2.48-2.347-2.64z"></path>
</symbol>

<symbol id="icon-phone_24" viewBox="0 0 32 32">
<path d="M28.865 21.822l-4.525-0.517c-0.532-0.062-1.071-0.004-1.577 0.172s-0.966 0.464-1.344 0.843l-3.278 3.278c-5.057-2.572-9.167-6.682-11.739-11.739l3.296-3.296c0.766-0.766 1.14-1.835 1.015-2.921l-0.517-4.489c-0.101-0.869-0.518-1.671-1.172-2.252s-1.498-0.902-2.373-0.901h-3.082c-2.013 0-3.687 1.675-3.563 3.687 0.944 15.213 13.111 27.362 28.306 28.306 2.013 0.125 3.687-1.55 3.687-3.563v-3.082c0.018-1.799-1.336-3.313-3.135-3.527z" fill="currentColor"></path>
</symbol>

<symbol id="icon-plus" viewBox="0 0 32 32">
<path d="M13.524 13.524v-6.857h2.286v6.857h6.857v2.286h-6.857v6.857h-2.286v-6.857h-6.857v-2.286h6.857z"></path>
</symbol>

<symbol id="icon-plus_45" viewBox="0 0 32 32">
<path d="M14.115 16l-5.657-5.657 1.886-1.886 5.657 5.657 5.657-5.657 1.886 1.886-5.657 5.657 5.657 5.657-1.886 1.886-5.657-5.657-5.657 5.657-1.886-1.886 5.657-5.657z"></path>
</symbol>

<symbol id="icon-user" viewBox="0 0 32 32">
<path d="M16 4.667c-3.13 0-5.667 2.537-5.667 5.667s2.537 5.667 5.667 5.667c3.13 0 5.667-2.537 5.667-5.667s-2.537-5.667-5.667-5.667zM8.333 10.333c0-4.234 3.432-7.667 7.667-7.667s7.667 3.432 7.667 7.667c0 4.234-3.433 7.667-7.667 7.667s-7.667-3.433-7.667-7.667z"></path>
<path d="M16 22.667c-6.324 0-11 3.95-11 8.333 0 0.552-0.448 1-1 1s-1-0.448-1-1c0-5.926 6.069-10.333 13-10.333s13 4.407 13 10.333c0 0.552-0.448 1-1 1s-1-0.448-1-1c0-4.383-4.676-8.333-11-8.333z"></path>
</symbol>

    <!-- color icons social -->
<symbol id="colorIcon-facebook" viewBox="0 0 32 32">
<path fill="#1877f2" style="fill: var(--color1, #1877f2)" d="M27 0h-22c-2.761 0-5 2.239-5 5v22c0 2.761 2.239 5 5 5h22c2.761 0 5-2.239 5-5v-22c0-2.761-2.239-5-5-5z"></path>
<path fill="#fff" style="fill: var(--color2, #fff)" d="M24 16c0-4.4-3.6-8-8-8s-8 3.6-8 8c0 4 2.9 7.3 6.7 7.9v-5.6h-2v-2.3h2v-1.8c0-2 1.2-3.1 3-3.1 0.9 0 1.8 0.2 1.8 0.2v2h-1c-1 0-1.3 0.6-1.3 1.2v1.5h2.2l-0.4 2.3h-1.9v5.7c4-0.6 6.9-4 6.9-8z"></path>
</symbol>

<symbol id="colorIcon-instagram" viewBox="0 0 32 32">
<path fill="#f00073" style="fill: var(--color3, #f00073)" d="M27 0h-22c-2.761 0-5 2.239-5 5v22c0 2.761 2.239 5 5 5h22c2.761 0 5-2.239 5-5v-22c0-2.761-2.239-5-5-5z"></path>
<path fill="#fff" style="fill: var(--color2, #fff)" d="M16 9.2c2.2 0 2.5 0 3.4 0 0.8 0 1.2 0.2 1.5 0.3 0.4 0.2 0.7 0.3 1 0.6s0.5 0.6 0.6 1c0.1 0.3 0.2 0.7 0.3 1.5 0 0.9 0 1.1 0 3.4s0 2.5 0 3.4c0 0.8-0.2 1.2-0.3 1.5-0.2 0.4-0.3 0.7-0.6 1s-0.6 0.5-1 0.6c-0.3 0.1-0.7 0.2-1.5 0.3-0.9 0-1.1 0-3.4 0s-2.5 0-3.4 0c-0.8 0-1.2-0.2-1.5-0.3-0.4-0.2-0.7-0.3-1-0.6s-0.5-0.6-0.6-1c-0.1-0.3-0.2-0.7-0.3-1.5 0-0.9 0-1.1 0-3.4s0-2.5 0-3.4c0-0.8 0.2-1.2 0.3-1.5 0.2-0.4 0.3-0.7 0.6-1s0.6-0.5 1-0.6c0.3-0.1 0.7-0.2 1.5-0.3 0.9 0 1.2 0 3.4 0zM16 7.7c-2.3 0-2.5 0-3.4 0s-1.5 0.2-2 0.4c-0.5 0.2-1 0.5-1.5 1s-0.7 0.9-1 1.5c-0.2 0.5-0.3 1.1-0.4 2 0 0.9 0 1.2 0 3.4 0 2.3 0 2.5 0 3.4s0.2 1.5 0.4 2c0.2 0.5 0.5 1 1 1.5s0.9 0.7 1.5 1c0.5 0.2 1.1 0.3 2 0.4 0.9 0 1.2 0 3.4 0s2.5 0 3.4 0c0.9 0 1.5-0.2 2-0.4s1-0.5 1.5-1c0.5-0.5 0.7-0.9 1-1.5 0.2-0.5 0.3-1.1 0.4-2 0-0.9 0-1.2 0-3.4s0-2.5 0-3.4c0-0.9-0.2-1.5-0.4-2s-0.5-1-1-1.5c-0.5-0.5-0.9-0.7-1.5-1-0.5-0.2-1.1-0.3-2-0.4-0.9 0-1.1 0-3.4 0z"></path>
<path fill="#fff" style="fill: var(--color2, #fff)" d="M16 11.7c-2.4 0-4.3 1.9-4.3 4.3s1.9 4.3 4.3 4.3c2.4 0 4.3-1.9 4.3-4.3s-1.9-4.3-4.3-4.3zM16 18.8c-1.5 0-2.8-1.2-2.8-2.8 0-1.5 1.2-2.8 2.8-2.8 1.5 0 2.8 1.2 2.8 2.8 0 1.5-1.3 2.8-2.8 2.8z"></path>
<path fill="#fff" style="fill: var(--color2, #fff)" d="M20.4 12.6c0.552 0 1-0.448 1-1s-0.448-1-1-1c-0.552 0-1 0.448-1 1s0.448 1 1 1z"></path>
</symbol>

<symbol id="colorIcon-telegram" viewBox="0 0 32 32">
<path fill="#08c" style="fill: var(--color4, #08c)" d="M27 0h-22c-2.761 0-5 2.239-5 5v22c0 2.761 2.239 5 5 5h22c2.761 0 5-2.239 5-5v-22c0-2.761-2.239-5-5-5z"></path>
<path fill="#fff" style="fill: var(--color2, #fff)" d="M8.1 15.708c4.295-1.871 7.159-3.105 8.592-3.701 4.091-1.702 4.942-1.997 5.496-2.007 0.122-0.002 0.394 0.028 0.571 0.171 0.149 0.121 0.19 0.284 0.21 0.399s0.044 0.376 0.025 0.58c-0.222 2.33-1.181 7.983-1.669 10.592-0.206 1.104-0.613 1.474-1.007 1.511-0.855 0.079-1.505-0.565-2.334-1.109-1.297-0.85-2.029-1.379-3.288-2.209-1.455-0.959-0.512-1.485 0.317-2.346 0.217-0.225 3.987-3.654 4.059-3.965 0.009-0.039 0.018-0.184-0.069-0.261s-0.213-0.050-0.305-0.030c-0.13 0.030-2.201 1.399-6.214 4.107-0.588 0.404-1.121 0.601-1.598 0.59-0.526-0.011-1.538-0.297-2.29-0.542-0.923-0.3-1.656-0.459-1.592-0.968 0.033-0.265 0.399-0.537 1.096-0.814z"></path>
</symbol>

<symbol id="colorIcon-tik_tok" viewBox="0 0 32 32">
<path fill="#000" style="fill: var(--color5, #000)" d="M0 5c0-2.761 2.239-5 5-5h22c2.761 0 5 2.239 5 5v22c0 2.761-2.239 5-5 5h-22c-2.761 0-5-2.239-5-5v-22z"></path>
<path fill="#25f4ee" style="fill: var(--color6, #25f4ee)" d="M14.498 14.3v-0.623c-0.213-0.028-0.43-0.046-0.654-0.046-2.671-0.004-4.844 2.171-4.844 4.848 0 1.641 0.818 3.093 2.070 3.973-0.807-0.865-1.302-2.029-1.302-3.303 0-2.638 2.113-4.787 4.73-4.848z"></path>
<path fill="#25f4ee" style="fill: var(--color6, #25f4ee)" d="M14.616 21.362c1.191 0 2.166-0.95 2.209-2.132l0.004-10.561h1.928c-0.039-0.217-0.061-0.441-0.061-0.669h-2.632l-0.003 10.561c-0.043 1.182-1.017 2.132-2.209 2.132-0.37 0-0.718-0.093-1.028-0.256 0.398 0.559 1.053 0.925 1.793 0.925z"></path>
<path fill="#25f4ee" style="fill: var(--color6, #25f4ee)" d="M22.358 12.254v-0.587c-0.736 0-1.419-0.217-1.995-0.594 0.512 0.587 1.206 1.014 1.995 1.182z"></path>
<path fill="#fe2c55" style="fill: var(--color7, #fe2c55)" d="M20.363 11.072c-0.562-0.644-0.9-1.484-0.9-2.403h-0.704c0.181 1.004 0.779 1.865 1.604 2.403z"></path>
<path fill="#fe2c55" style="fill: var(--color7, #fe2c55)" d="M13.847 16.262c-1.22 0-2.212 0.993-2.212 2.214 0 0.851 0.484 1.591 1.188 1.961-0.263-0.363-0.42-0.808-0.42-1.292 0-1.221 0.992-2.214 2.212-2.214 0.228 0 0.448 0.039 0.654 0.103v-2.691c-0.213-0.028-0.43-0.046-0.654-0.046-0.039 0-0.075 0.004-0.114 0.004v2.065c-0.21-0.064-0.427-0.103-0.654-0.103z"></path>
<path fill="#fe2c55" style="fill: var(--color7, #fe2c55)" d="M22.358 12.253v2.047c-1.366 0-2.632-0.438-3.663-1.178v5.357c0 2.673-2.173 4.852-4.848 4.852-1.031 0-1.992-0.328-2.778-0.879 0.886 0.95 2.148 1.548 3.546 1.548 2.671 0 4.848-2.175 4.848-4.852v-5.357c1.031 0.74 2.297 1.178 3.663 1.178v-2.634c-0.267 0-0.523-0.028-0.768-0.082z"></path>
<path fill="#fff" style="fill: var(--color2, #fff)" d="M18.695 18.479v-5.357c1.031 0.74 2.297 1.178 3.663 1.178v-2.047c-0.79-0.167-1.483-0.595-1.995-1.182-0.825-0.537-1.419-1.399-1.607-2.403h-1.928l-0.003 10.561c-0.043 1.182-1.017 2.132-2.209 2.132-0.74 0-1.391-0.367-1.796-0.922-0.704-0.374-1.188-1.11-1.188-1.961 0-1.221 0.992-2.214 2.212-2.214 0.228 0 0.448 0.039 0.654 0.103v-2.064c-2.618 0.057-4.73 2.207-4.73 4.845 0 1.274 0.494 2.435 1.302 3.303 0.786 0.552 1.746 0.879 2.778 0.879 2.671 0 4.848-2.178 4.848-4.852z"></path>
</symbol>

<symbol id="colorIcon-twitter" viewBox="0 0 32 32">
<path fill="#1da1f2" style="fill: var(--color8, #1da1f2)" d="M27 0h-22c-2.761 0-5 2.239-5 5v22c0 2.761 2.239 5 5 5h22c2.761 0 5-2.239 5-5v-22c0-2.761-2.239-5-5-5z"></path>
<path fill="#fff" style="fill: var(--color2, #fff)" d="M24 11c-0.6 0.3-1.2 0.4-1.9 0.5 0.7-0.4 1.2-1 1.4-1.8-0.6 0.4-1.3 0.6-2.1 0.8-0.6-0.6-1.5-1-2.4-1-2.1 0-3.7 2-3.2 4-2.7-0.1-5.1-1.4-6.8-3.4-0.9 1.5-0.4 3.4 1 4.4-0.5 0-1-0.2-1.5-0.4 0 1.5 1.1 2.9 2.6 3.3-0.5 0.1-1 0.2-1.5 0.1 0.4 1.3 1.6 2.3 3.1 2.3-1.2 0.9-3 1.4-4.7 1.2 1.5 0.9 3.2 1.5 5 1.5 6.1 0 9.5-5.1 9.3-9.8 0.7-0.4 1.3-1 1.7-1.7z"></path>
</symbol>

<symbol id="colorIcon-facebook2" viewBox="0 0 32 32">
<path fill="#3d5a98" style="fill: var(--color9, #3d5a98)" d="M0 5c0-2.761 2.239-5 5-5h22c2.761 0 5 2.239 5 5v22c0 2.761-2.239 5-5 5h-22c-2.761 0-5-2.239-5-5v-22z"></path>
<path fill="#fff" style="fill: var(--color2, #fff)" d="M17.49 26v-8.667h2.948l0.441-3.377h-3.389v-2.156c0-0.978 0.276-1.645 1.696-1.645h1.813v-3.026c-0.878-0.090-1.761-0.133-2.643-0.129-2.611 0-4.409 1.57-4.409 4.465v2.491h-2.948v3.378h2.948v8.667h3.542z"></path>
</symbol>

<symbol id="colorIcon-viber" viewBox="0 0 32 32">
<path fill="#7d529e" style="fill: var(--color10, #7d529e)" d="M0 5c0-2.761 2.239-5 5-5h22c2.761 0 5 2.239 5 5v22c0 2.761-2.239 5-5 5h-22c-2.761 0-5-2.239-5-5v-22z"></path>
<path fill="#fff" style="fill: var(--color2, #fff)" d="M11.965 10.202c-0.186-0.027-0.375 0.010-0.537 0.106h-0.014c-0.375 0.22-0.713 0.497-1.001 0.823-0.24 0.277-0.37 0.557-0.404 0.827-0.020 0.16-0.006 0.322 0.041 0.475l0.018 0.010c0.27 0.793 0.622 1.556 1.052 2.274 0.554 1.008 1.237 1.941 2.030 2.775l0.024 0.034 0.038 0.028 0.023 0.027 0.028 0.024c0.837 0.796 1.772 1.481 2.782 2.040 1.155 0.629 1.856 0.926 2.277 1.050v0.006c0.123 0.038 0.235 0.055 0.348 0.055 0.358-0.026 0.698-0.172 0.964-0.414 0.325-0.288 0.6-0.627 0.814-1.004v-0.007c0.201-0.38 0.133-0.738-0.157-0.981-0.582-0.509-1.212-0.961-1.881-1.35-0.448-0.243-0.903-0.096-1.087 0.15l-0.393 0.496c-0.202 0.246-0.568 0.212-0.568 0.212l-0.010 0.006c-2.731-0.697-3.46-3.462-3.46-3.462s-0.034-0.376 0.219-0.568l0.492-0.396c0.236-0.192 0.4-0.646 0.147-1.094-0.386-0.669-0.838-1.299-1.347-1.88-0.111-0.137-0.267-0.23-0.44-0.263l0.002 0.001zM16.58 9c-0.133 0-0.26 0.053-0.354 0.146s-0.146 0.221-0.146 0.354 0.053 0.26 0.146 0.354c0.094 0.094 0.221 0.146 0.354 0.146 1.264 0 2.314 0.413 3.145 1.205 0.427 0.433 0.76 0.946 0.978 1.508 0.219 0.563 0.319 1.164 0.293 1.766-0.006 0.133 0.042 0.262 0.132 0.36s0.215 0.156 0.347 0.161c0.133 0.006 0.262-0.042 0.36-0.132s0.156-0.215 0.161-0.347c0.031-0.741-0.092-1.479-0.361-2.17-0.27-0.694-0.68-1.325-1.204-1.854l-0.010-0.010c-1.031-0.985-2.335-1.487-3.841-1.487z"></path>
<path fill="#fff" style="fill: var(--color2, #fff)" d="M16.545 10.644c-0.133 0-0.26 0.053-0.354 0.146s-0.146 0.221-0.146 0.354 0.053 0.26 0.146 0.354c0.094 0.094 0.221 0.146 0.354 0.146h0.017c0.912 0.065 1.576 0.369 2.041 0.868 0.477 0.514 0.724 1.153 0.705 1.943-0.003 0.133 0.047 0.261 0.138 0.357s0.218 0.152 0.35 0.155c0.133 0.003 0.261-0.047 0.357-0.138s0.152-0.218 0.155-0.35c0.024-1.037-0.31-1.932-0.972-2.646v-0.002c-0.677-0.726-1.606-1.11-2.724-1.185l-0.017-0.002-0.050 0.001z"></path>
<path fill="#fff" style="fill: var(--color2, #fff)" d="M16.526 12.319c-0.067-0.006-0.134 0.002-0.198 0.023s-0.123 0.054-0.174 0.098c-0.051 0.044-0.092 0.098-0.122 0.158s-0.046 0.126-0.050 0.193 0.007 0.134 0.030 0.197c0.023 0.063 0.058 0.121 0.104 0.17s0.101 0.088 0.163 0.116c0.061 0.027 0.128 0.042 0.195 0.043 0.418 0.022 0.685 0.148 0.853 0.317s0.295 0.443 0.318 0.87c0.001 0.067 0.016 0.133 0.043 0.195s0.067 0.116 0.116 0.162c0.049 0.046 0.107 0.081 0.17 0.104s0.13 0.033 0.197 0.029c0.067-0.004 0.133-0.021 0.193-0.050s0.114-0.071 0.158-0.121c0.044-0.051 0.077-0.11 0.098-0.174s0.028-0.131 0.023-0.198c-0.032-0.6-0.22-1.13-0.605-1.52-0.387-0.39-0.914-0.58-1.512-0.612z"></path>
<path fill="#fff" style="fill: var(--color2, #fff)" d="M11.067 6.384c3.182-0.711 6.482-0.711 9.664 0l0.339 0.075c0.93 0.208 1.785 0.67 2.468 1.334s1.169 1.505 1.404 2.429c0.808 3.183 0.808 6.517 0 9.7-0.235 0.924-0.72 1.765-1.404 2.429s-1.538 1.126-2.468 1.334l-0.34 0.075c-1.993 0.446-4.038 0.614-6.077 0.499l-2.653 2.374c-0.1 0.090-0.222 0.151-0.354 0.177s-0.268 0.017-0.395-0.028c-0.127-0.044-0.239-0.122-0.326-0.225s-0.144-0.227-0.166-0.359l-0.439-2.622c-0.842-0.262-1.602-0.735-2.209-1.375s-1.039-1.424-1.256-2.279c-0.808-3.183-0.808-6.517 0-9.7 0.234-0.924 0.72-1.765 1.404-2.429s1.538-1.126 2.468-1.334l0.339-0.075zM20.404 7.847c-2.967-0.663-6.043-0.663-9.010 0l-0.34 0.076c-0.659 0.148-1.265 0.475-1.749 0.946s-0.829 1.067-0.995 1.722c-0.746 2.941-0.746 6.021 0 8.962 0.166 0.655 0.511 1.251 0.995 1.722s1.090 0.798 1.75 0.946l0.090 0.020c0.146 0.032 0.278 0.108 0.381 0.216s0.171 0.245 0.195 0.392l0.294 1.758 1.872-1.675c0.075-0.067 0.162-0.119 0.257-0.151s0.196-0.046 0.296-0.039c1.999 0.142 4.008-0.008 5.964-0.445l0.339-0.076c0.659-0.148 1.265-0.475 1.75-0.946s0.829-1.067 0.995-1.722c0.746-2.94 0.746-6.021 0-8.962-0.166-0.655-0.511-1.251-0.995-1.722s-1.090-0.798-1.75-0.946l-0.339-0.076z"></path>
</symbol>

<symbol id="colorIcon-youtube" viewBox="0 0 32 32">
<path fill="#f00" style="fill: var(--color11, #f00)" d="M27 0h-22c-2.761 0-5 2.239-5 5v22c0 2.761 2.239 5 5 5h22c2.761 0 5-2.239 5-5v-22c0-2.761-2.239-5-5-5z"></path>
<path fill="#fff" style="fill: var(--color2, #fff)" d="M23.6 12.1c-0.2-0.7-0.7-1.2-1.4-1.4-1.2-0.3-6.3-0.3-6.3-0.3s-5 0-6.3 0.3c-0.7 0.2-1.2 0.7-1.4 1.4-0.2 1.3-0.2 3.9-0.2 3.9s0 2.6 0.3 3.9c0.2 0.7 0.7 1.2 1.4 1.4 1.2 0.3 6.3 0.3 6.3 0.3s5 0 6.3-0.3c0.7-0.2 1.2-0.7 1.4-1.4 0.3-1.3 0.3-3.9 0.3-3.9s0-2.6-0.4-3.9zM14.4 18.4v-4.8l4.2 2.4-4.2 2.4z"></path>
</symbol>

<symbol id="colorIcon-site" viewBox="0 0 32 32">
    <path d="M27 0H5C2.23858 0 0 2.23858 0 5V27C0 29.7614 2.23858 32 5 32H27C29.7614 32 32 29.7614 32 27V5C32 2.23858 29.7614 0 27 0Z" fill="#64B13F"/>
    <path fill-rule="evenodd" clip-rule="evenodd" d="M9.06957 9.0703C10.9074 7.23245 13.4001 6.19995 15.9992 6.19995C18.5983 6.19995 21.091 7.23245 22.9289 9.0703C24.7667 10.9082 25.7992 13.4008 25.7992 16C25.7992 18.5991 24.7667 21.0917 22.9289 22.9296C21.091 24.7675 18.5983 25.8 15.9992 25.8C13.4001 25.8 10.9074 24.7675 9.06957 22.9296C7.23172 21.0917 6.19922 18.5991 6.19922 16C6.19922 13.4008 7.23172 10.9082 9.06957 9.0703ZM15.9992 7.79995C13.8244 7.79995 11.7387 8.66388 10.2009 10.2017C8.85287 11.5498 8.02265 13.3189 7.83831 15.2H24.1601C23.9758 13.3189 23.1456 11.5498 21.7975 10.2017C20.2597 8.66388 18.174 7.79995 15.9992 7.79995ZM24.1601 16.8H7.83831C8.02265 18.681 8.85287 20.4502 10.2009 21.7982C11.7387 23.336 13.8244 24.2 15.9992 24.2C18.174 24.2 20.2597 23.336 21.7975 21.7982C23.1456 20.4502 23.9758 18.681 24.1601 16.8Z" fill="white"/>
    <path fill-rule="evenodd" clip-rule="evenodd" d="M15.9998 6.19995C16.2406 6.19995 16.4686 6.3084 16.6205 6.49522C18.8068 9.18379 20.0815 12.498 20.2603 15.9587C20.2617 15.9862 20.2617 16.0137 20.2603 16.0412C20.0815 19.5019 18.8068 22.8161 16.6205 25.5047C16.4686 25.6915 16.2406 25.8 15.9998 25.8C15.759 25.8 15.5311 25.6915 15.3791 25.5047C13.1928 22.8161 11.9181 19.5019 11.7393 16.0412C11.7379 16.0137 11.7379 15.9862 11.7393 15.9587C11.9181 12.498 13.1928 9.18379 15.3791 6.49522C15.5311 6.3084 15.759 6.19995 15.9998 6.19995ZM13.3394 16C13.4899 18.7635 14.4152 21.422 15.9998 23.6751C17.5844 21.422 18.5097 18.7635 18.6602 16C18.5097 13.2364 17.5844 10.5779 15.9998 8.32483C14.4152 10.5779 13.4899 13.2364 13.3394 16Z" fill="white"/>
</symbol>

</defs>
</svg>
