<svg width="225" height="44" viewBox="0 0 225 44" fill="none" xmlns="http://www.w3.org/2000/svg">
<path d="M208.977 22.6768L203.605 33.0967V6.99316L208.977 7.20801V22.6768ZM218.645 21.4092L224.016 10.8604V37.0713L218.645 36.8564V21.4092ZM209.406 37.0713H203.605L218.43 6.99316H224.016L209.406 37.0713Z" fill="url(#paint0_linear_3410_21943)"/>
<path d="M192.723 13.7607V37.0713H187.352V13.7607H192.723ZM180.047 11.7197L180.262 6.99316H198.953L199.168 11.7197H180.047Z" fill="url(#paint1_linear_3410_21943)"/>
<path d="M168.682 17.0264L170.83 6.99316H171.947L178.607 37.0713H173.236L171.518 30.626H165.287L166.275 26.3291H170.766L168.682 17.0264ZM168.896 6.99316L161.85 37.0713H156.479L163.354 6.99316H168.896Z" fill="url(#paint2_linear_3410_21943)"/>
<path d="M148.68 13.7607V37.0713H143.309V13.7607H148.68ZM136.004 11.7197L136.219 6.99316H154.91L155.125 11.7197H136.004Z" fill="url(#paint3_linear_3410_21943)"/>
<path d="M114.23 37.0713V6.77832H119.602V37.0713H114.23ZM121.557 32.3447H124.973C127.121 32.3447 128.195 31.6286 128.195 30.1963V25.4697C128.195 24.0374 127.121 23.3213 124.973 23.3213H121.535V18.5947H126.047C131.06 18.8812 133.566 21.0296 133.566 25.04V30.626C133.566 34.9229 131.06 37.0713 126.047 37.0713H121.557V32.3447Z" fill="url(#paint4_linear_3410_21943)"/>
<path d="M99.2793 17.0264L101.428 6.99316H102.545L109.205 37.0713H103.834L99.2793 17.0264ZM99.4941 6.99316L92.4473 37.0713H87.0762L93.9512 6.99316H99.4941Z" fill="url(#paint5_linear_3410_21943)"/>
<path d="M76.1621 26.1787L71.7578 26.4795C66.7448 26.4795 64.2383 24.3311 64.2383 20.0342V6.92871L69.6094 6.71387V19.3896C69.6094 20.8219 70.6836 21.5381 72.832 21.5381L76.1621 21.2803V26.1787ZM78.2031 7.14355L83.5742 6.92871V28.6279C83.5742 33.7842 81.2109 36.5771 76.4844 37.0068C74.4648 37.193 72.6888 37.2861 71.1562 37.2861C69.1224 37.2861 67.5326 37.1214 66.3867 36.792L66.6016 32.4951C69.1797 32.6383 71.7578 32.71 74.3359 32.71C76.9141 32.71 78.2031 31.9938 78.2031 30.5615V7.14355Z" fill="url(#paint6_linear_3410_21943)"/>
<path d="M52.4648 32.3447C54.4414 32.2874 55.4297 31.5713 55.4297 30.1963V26.9736C55.4297 25.5557 54.4414 24.6748 52.4648 24.3311V19.7334C54.4414 19.3896 55.4297 18.5088 55.4297 17.0908V13.8682C55.4297 12.4359 54.4987 11.7197 52.6367 11.7197H52.4648V6.99316H53.2812C58.2943 6.99316 60.8008 9.1416 60.8008 13.4385V17.0908C60.8008 19.6689 59.3685 21.3161 56.5039 22.0322C59.3685 22.7484 60.8008 24.3955 60.8008 26.9736V30.626C60.8008 34.9229 58.2943 37.0713 53.2812 37.0713H52.4648V32.3447ZM50.2949 24.1807H45.5039V19.8838H50.2949V24.1807ZM50.2949 11.7197H43.6133L43.3984 6.99316H50.2949V11.7197ZM50.2949 37.0713H43.3984L43.6133 32.3447H50.2949V37.0713Z" fill="url(#paint7_linear_3410_21943)"/>
<path d="M30.4219 19.8838H37.8125V24.1807H30.4219V19.8838ZM30.4219 32.3447H39.9609L39.7461 37.0713H30.4219V32.3447ZM30.4219 6.99316H39.7461L39.9609 11.7197H30.4219V6.99316ZM28.1445 6.99316V37.0713H22.7734V6.99316H28.1445Z" fill="url(#paint8_linear_3410_21943)"/>
<path d="M7.5625 6.99316H11.8164C16.8294 6.99316 19.3359 9.1416 19.3359 13.4385V19.0244C19.3359 23.0348 16.8294 25.1833 11.8164 25.4697H7.5625V20.7432H10.7422C12.8906 20.7432 13.9648 20.027 13.9648 18.5947V13.8682C13.9648 12.4359 12.8906 11.7197 10.7422 11.7197H7.5625V6.99316ZM5.37109 6.99316V37.0713H0V6.99316H5.37109Z" fill="url(#paint9_linear_3410_21943)"/>
<defs>
<linearGradient id="paint666" x1="213.082" y1="9.04395" x2="214.679" y2="36.9841" gradientUnits="userSpaceOnUse">
<stop stop-color="#E5B82F"/>
<stop offset="1" stop-color="#F8E73D"/>
</linearGradient>
<linearGradient id="paint1_linear_3410_21943" x1="188.925" y1="9.04395" x2="190.629" y2="36.9714" gradientUnits="userSpaceOnUse">
<stop stop-color="#E5B82F"/>
<stop offset="1" stop-color="#F8E73D"/>
</linearGradient>
<linearGradient id="paint2_linear_3410_21943" x1="166.753" y1="9.04395" x2="168.227" y2="36.9977" gradientUnits="userSpaceOnUse">
<stop stop-color="#E5B82F"/>
<stop offset="1" stop-color="#F8E73D"/>
</linearGradient>
<linearGradient id="paint3_linear_3410_21943" x1="144.882" y1="9.04395" x2="146.586" y2="36.9714" gradientUnits="userSpaceOnUse">
<stop stop-color="#E5B82F"/>
<stop offset="1" stop-color="#F8E73D"/>
</linearGradient>
<linearGradient id="paint4_linear_3410_21943" x1="123.208" y1="8.84375" x2="124.918" y2="36.9715" gradientUnits="userSpaceOnUse">
<stop stop-color="#E5B82F"/>
<stop offset="1" stop-color="#F8E73D"/>
</linearGradient>
<linearGradient id="paint5_linear_3410_21943" x1="97.3503" y1="9.04395" x2="98.8246" y2="36.9977" gradientUnits="userSpaceOnUse">
<stop stop-color="#E5B82F"/>
<stop offset="1" stop-color="#F8E73D"/>
</linearGradient>
<linearGradient id="paint6_linear_3410_21943" x1="73.2157" y1="8.79834" x2="74.9572" y2="37.1835" gradientUnits="userSpaceOnUse">
<stop stop-color="#E5B82F"/>
<stop offset="1" stop-color="#F8E73D"/>
</linearGradient>
<linearGradient id="paint7_linear_3410_21943" x1="51.4781" y1="9.04395" x2="53.3497" y2="36.9499" gradientUnits="userSpaceOnUse">
<stop stop-color="#E5B82F"/>
<stop offset="1" stop-color="#F8E73D"/>
</linearGradient>
<linearGradient id="paint8_linear_3410_21943" x1="30.7533" y1="9.04395" x2="32.6481" y2="36.9468" gradientUnits="userSpaceOnUse">
<stop stop-color="#E5B82F"/>
<stop offset="1" stop-color="#F8E73D"/>
</linearGradient>
<linearGradient id="paint9_linear_3410_21943" x1="8.9774" y1="9.04395" x2="10.6632" y2="36.9737" gradientUnits="userSpaceOnUse">
<stop stop-color="#E5B82F"/>
<stop offset="1" stop-color="#F8E73D"/>
</linearGradient>
</defs>
</svg>
