<svg width="204" height="40" viewBox="0 0 204 40" fill="none" xmlns="http://www.w3.org/2000/svg">
<path d="M189.797 20.6152L184.914 30.0879V6.35742L189.797 6.55273V20.6152ZM198.586 19.4629L203.469 9.87305V33.7012L198.586 33.5059V19.4629ZM190.188 33.7012H184.914L198.391 6.35742H203.469L190.188 33.7012Z" fill="url(#paint0_linear_3410_21974)"/>
<path d="M174.93 12.5098V33.7012H170.047V12.5098H174.93ZM163.406 10.6543L163.602 6.35742H180.594L180.789 10.6543H163.406Z" fill="url(#paint1_linear_3410_21974)"/>
<path d="M153.074 15.4785L155.027 6.35742H156.043L162.098 33.7012H157.215L155.652 27.8418H149.988L150.887 23.9355H154.969L153.074 15.4785ZM153.27 6.35742L146.863 33.7012H141.98L148.23 6.35742H153.27Z" fill="url(#paint2_linear_3410_21974)"/>
<path d="M134.891 12.5098V33.7012H130.008V12.5098H134.891ZM123.367 10.6543L123.562 6.35742H140.555L140.75 10.6543H123.367Z" fill="url(#paint3_linear_3410_21974)"/>
<path d="M104.664 33.7012V6.16211H109.547V33.7012H104.664ZM111.324 29.4043H114.43C116.383 29.4043 117.359 28.7533 117.359 27.4512V23.1543C117.359 21.8522 116.383 21.2012 114.43 21.2012H111.305V16.9043H115.406C119.964 17.1647 122.242 19.1178 122.242 22.7637V27.8418C122.242 31.748 119.964 33.7012 115.406 33.7012H111.324V29.4043Z" fill="url(#paint4_linear_3410_21974)"/>
<path d="M90.2539 15.4785L92.207 6.35742H93.2227L99.2773 33.7012H94.3945L90.2539 15.4785ZM90.4492 6.35742L84.043 33.7012H79.1602L85.4102 6.35742H90.4492Z" fill="url(#paint5_linear_3410_21974)"/>
<path d="M69.2383 23.7988L65.2344 24.0723C60.6771 24.0723 58.3984 22.1191 58.3984 18.2129V6.29883L63.2812 6.10352V17.627C63.2812 18.929 64.2578 19.5801 66.2109 19.5801L69.2383 19.3457V23.7988ZM71.0938 6.49414L75.9766 6.29883V26.0254C75.9766 30.7129 73.8281 33.252 69.5312 33.6426C67.6953 33.8118 66.0807 33.8965 64.6875 33.8965C62.8385 33.8965 61.3932 33.7467 60.3516 33.4473L60.5469 29.541C62.8906 29.6712 65.2344 29.7363 67.5781 29.7363C69.9219 29.7363 71.0938 29.0853 71.0938 27.7832V6.49414Z" fill="url(#paint6_linear_3410_21974)"/>
<path d="M47.6953 29.4043C49.4922 29.3522 50.3906 28.7012 50.3906 27.4512V24.5215C50.3906 23.2324 49.4922 22.4316 47.6953 22.1191V17.9395C49.4922 17.627 50.3906 16.8262 50.3906 15.5371V12.6074C50.3906 11.3053 49.5443 10.6543 47.8516 10.6543H47.6953V6.35742H48.4375C52.9948 6.35742 55.2734 8.31055 55.2734 12.2168V15.5371C55.2734 17.8809 53.9714 19.3783 51.3672 20.0293C53.9714 20.6803 55.2734 22.1777 55.2734 24.5215V27.8418C55.2734 31.748 52.9948 33.7012 48.4375 33.7012H47.6953V29.4043ZM45.7227 21.9824H41.3672V18.0762H45.7227V21.9824ZM45.7227 10.6543H39.6484L39.4531 6.35742H45.7227V10.6543ZM45.7227 33.7012H39.4531L39.6484 29.4043H45.7227V33.7012Z" fill="url(#paint7_linear_3410_21974)"/>
<path d="M27.6562 18.0762H34.375V21.9824H27.6562V18.0762ZM27.6562 29.4043H36.3281L36.1328 33.7012H27.6562V29.4043ZM27.6562 6.35742H36.1328L36.3281 10.6543H27.6562V6.35742ZM25.5859 6.35742V33.7012H20.7031V6.35742H25.5859Z" fill="url(#paint8_linear_3410_21974)"/>
<path d="M6.875 6.35742H10.7422C15.2995 6.35742 17.5781 8.31055 17.5781 12.2168V17.2949C17.5781 20.9408 15.2995 22.8939 10.7422 23.1543H6.875V18.8574H9.76562C11.7188 18.8574 12.6953 18.2064 12.6953 16.9043V12.6074C12.6953 11.3053 11.7188 10.6543 9.76562 10.6543H6.875V6.35742ZM4.88281 6.35742V33.7012H0V6.35742H4.88281Z" fill="url(#paint9_linear_3410_21974)"/>
<defs>
<linearGradient id="paint0_linear_3410_21974" x1="193.529" y1="8.22177" x2="194.981" y2="33.6219" gradientUnits="userSpaceOnUse">
<stop stop-color="#E5B82F"/>
<stop offset="1" stop-color="#F8E73D"/>
</linearGradient>
<linearGradient id="paint1_linear_3410_21974" x1="171.477" y1="8.22177" x2="173.027" y2="33.6104" gradientUnits="userSpaceOnUse">
<stop stop-color="#E5B82F"/>
<stop offset="1" stop-color="#F8E73D"/>
</linearGradient>
<linearGradient id="paint2_linear_3410_21974" x1="151.321" y1="8.22177" x2="152.661" y2="33.6343" gradientUnits="userSpaceOnUse">
<stop stop-color="#E5B82F"/>
<stop offset="1" stop-color="#F8E73D"/>
</linearGradient>
<linearGradient id="paint3_linear_3410_21974" x1="131.438" y1="8.22177" x2="132.987" y2="33.6104" gradientUnits="userSpaceOnUse">
<stop stop-color="#E5B82F"/>
<stop offset="1" stop-color="#F8E73D"/>
</linearGradient>
<linearGradient id="paint4_linear_3410_21974" x1="112.825" y1="8.03977" x2="114.38" y2="33.6105" gradientUnits="userSpaceOnUse">
<stop stop-color="#E5B82F"/>
<stop offset="1" stop-color="#F8E73D"/>
</linearGradient>
<linearGradient id="paint5_linear_3410_21974" x1="88.5003" y1="8.22177" x2="89.8406" y2="33.6343" gradientUnits="userSpaceOnUse">
<stop stop-color="#E5B82F"/>
<stop offset="1" stop-color="#F8E73D"/>
</linearGradient>
<linearGradient id="paint6_linear_3410_21974" x1="66.5597" y1="7.99849" x2="68.1429" y2="33.8032" gradientUnits="userSpaceOnUse">
<stop stop-color="#E5B82F"/>
<stop offset="1" stop-color="#F8E73D"/>
</linearGradient>
<linearGradient id="paint7_linear_3410_21974" x1="46.7983" y1="8.22177" x2="48.4997" y2="33.5909" gradientUnits="userSpaceOnUse">
<stop stop-color="#E5B82F"/>
<stop offset="1" stop-color="#F8E73D"/>
</linearGradient>
<linearGradient id="paint8_linear_3410_21974" x1="27.9576" y1="8.22177" x2="29.6801" y2="33.588" gradientUnits="userSpaceOnUse">
<stop stop-color="#E5B82F"/>
<stop offset="1" stop-color="#F8E73D"/>
</linearGradient>
<linearGradient id="paint9_linear_3410_21974" x1="8.16127" y1="8.22177" x2="9.69385" y2="33.6125" gradientUnits="userSpaceOnUse">
<stop stop-color="#E5B82F"/>
<stop offset="1" stop-color="#F8E73D"/>
</linearGradient>
</defs>
</svg>
